# xmcd CD database file
#
# Track frame offsets:
#	150
#	27054
#	54441
#	87430
#	110992
#	140678
#	156629
#	180854
#	203293
#	221687
#	234422
#	261569
#
# Disc length: 3724 seconds
#
# Revision: 0
# Processed by: cddbd v1.5.1PL0 Copyright (c) Steve Scherf et al.
# Submitted via: cdripper 1.0.10
#
DISCID=aa0e8a0c
DTITLE=Cliff Cliff - Sweet Loven Woman
DYEAR=2001
DGENRE=Blues
TTITLE0=Sweet Loven Woman
TTITLE1=Stormy Monday
TTITLE2=Texas Flood
TTITLE3=As the Years Go Passing By
TTITLE4=Mountain Top
TTITLE5=Night Time Is the Right Time
TTITLE6=Rock Me Baby
TTITLE7=Hold On
TTITLE8=You Don't Have to Go
TTITLE9=You Got Me Running
TTITLE10=Sweet Sixteen
TTITLE11=Hey Baby
EXTD=YEAR: 2001
EXTT0=
EXTT1=
EXTT2=
EXTT3=
EXTT4=
EXTT5=
EXTT6=
EXTT7=
EXTT8=
EXTT9=
EXTT10=
EXTT11=
PLAYORDER=
